<?xml version="1.0" encoding="iso-8859-1"?>
<!-- Uploaded to: SVG Repo, www.svgrepo.com, Generator: SVG Repo Mixer Tools -->
<svg height="800px" width="800px" version="1.1" id="Layer_1" xmlns="http://www.w3.org/2000/svg" xmlns:xlink="http://www.w3.org/1999/xlink" 
	 viewBox="0 0 512 512" xml:space="preserve">
<path style="fill:#BDDEFF;" d="M385.67,483.507c6.456,6.456,6.456,17.03,0,23.597c-6.953,6.721-17.26,6.334-23.597,0l-19.59-19.59
	c-9.462-9.461-14.693-22.038-14.693-35.395c0-13.357,5.231-25.934,14.693-35.395c16.331-16.332,11.728-11.729,19.59-19.59
	c10.474-10.475,3.475-20.186-5.899-29.384v-0.111l-13.69-13.69c-9.462-9.461-14.693-22.038-14.693-35.395
	c0-13.357,5.231-25.934,14.693-35.395l11.353-11.464c15.77-15.784,39.148,8.31,23.595,23.597l-11.352,11.464
	c-6.534,6.531-6.532,17.064,0,23.597l19.59,19.59c19.478,19.478,19.478,51.311,0,70.79l-19.59,19.59
	c-6.534,6.531-6.532,17.064,0,23.597L385.67,483.507z"/>
<path style="fill:#D7EBFF;" d="M185.322,487.514l-19.59,19.59c-6.401,6.401-16.944,6.652-23.597,0
	c-6.568-6.567-6.568-17.141,0-23.597c16.331-16.332,11.728-11.729,19.59-19.59c10.474-10.475,3.475-20.186-5.899-29.384v-0.111
	l-13.69-13.69c-9.462-9.461-14.693-22.038-14.693-35.395c0-13.357,5.231-25.934,14.693-35.395l11.353-11.464
	c6.226-6.232,17.015-6.581,23.595,0c6.568,6.567,6.568,17.141,0,23.597c-7.08,7.15-16.25,13.824-16.25,23.263
	c0,4.452,1.781,8.682,4.899,11.798l19.59,19.59C204.8,436.203,204.8,468.036,185.322,487.514z"/>
<path style="fill:#36D9D9;" d="M155.826,367.305c-82.86,0-150.261-67.408-150.261-150.261S72.966,66.783,155.826,66.783
	s150.261,67.408,150.261,150.261S238.685,367.305,155.826,367.305z"/>
<path style="fill:#43BFBF;" d="M306.087,217.044c0-82.853-67.403-150.261-150.261-150.261v300.522
	C238.685,367.305,306.087,299.897,306.087,217.044z"/>
<path style="fill:#FFC033;" d="M356.174,300.522c-82.858,0-150.261-67.408-150.261-150.261S273.315,0,356.174,0
	s150.261,67.408,150.261,150.261S439.033,300.522,356.174,300.522z"/>
<path style="fill:#F9A926;" d="M506.436,150.261C506.436,67.408,439.033,0,356.174,0v300.522
	C439.033,300.522,506.436,233.114,506.436,150.261z"/>
<g>
	<path style="fill:#EDF0F2;" d="M267.131,166.957c-9.217,0-16.696-7.473-16.696-16.696c0-46.032,37.446-83.478,83.478-83.478
		c9.217,0,16.696,7.473,16.696,16.696s-7.479,16.696-16.696,16.696c-27.619,0-50.087,22.468-50.087,50.087
		C283.826,159.484,276.348,166.957,267.131,166.957z"/>
	<path style="fill:#EDF0F2;" d="M66.782,233.74c-9.217,0-16.696-7.473-16.696-16.696c0-46.032,37.446-83.478,83.478-83.478
		c9.217,0,16.696,7.473,16.696,16.696c0,9.223-7.479,16.696-16.696,16.696c-27.619,0-50.087,22.468-50.087,50.087
		C83.478,226.267,76,233.74,66.782,233.74z"/>
</g>
</svg>